<svg version="1.1" id="Layer_1" xmlns="http://www.w3.org/2000/svg" xmlns:xlink="http://www.w3.org/1999/xlink" x="0px" y="0px"
	 width="100%" viewBox="0 0 500 500" enable-background="new 0 0 500 500" xml:space="preserve">
<path fill="#010001" opacity="1.000000" stroke="none" 
	d="
M295.000000,501.000000 
	C196.666687,501.000000 98.833382,501.000000 1.000052,501.000000 
	C1.000035,334.333405 1.000035,167.666794 1.000018,1.000142 
	C167.666565,1.000095 334.333130,1.000095 500.999756,1.000047 
	C500.999847,167.666519 500.999847,334.333038 500.999939,500.999786 
	C432.500000,501.000000 364.000000,501.000000 295.000000,501.000000 
M96.921768,325.427643 
	C120.353607,318.402100 137.645477,303.895599 147.224670,281.475464 
	C162.852692,244.897980 149.894135,205.256348 116.129799,184.247345 
	C105.140060,177.409286 93.090630,173.694275 79.878922,173.221558 
	C79.878922,185.442215 79.878922,197.193497 79.878922,208.880325 
	C99.430611,214.738327 111.343040,227.402603 112.581924,247.703796 
	C114.003235,270.994232 101.468369,285.248322 79.822113,292.199158 
	C79.822113,304.096252 79.822113,315.856018 79.822113,328.462555 
	C85.488754,327.482422 90.811600,326.561707 96.921768,325.427643 
M435.946411,275.029236 
	C433.013092,275.171661 431.889221,273.744232 431.969116,270.860474 
	C432.095245,266.308105 432.002686,261.749695 432.002686,257.230988 
	C425.957733,257.230988 420.678162,257.230988 415.101868,257.230988 
	C415.101868,263.275879 415.101868,269.006989 415.101868,275.040558 
	C407.511078,275.040558 400.216644,275.108612 392.924774,275.002136 
	C390.506989,274.966858 389.173157,275.492218 388.112885,278.058380 
	C385.349182,284.747437 382.033478,291.208374 378.452728,298.787292 
	C374.279510,291.210419 370.714844,284.506653 366.874939,277.964417 
	C366.116516,276.672241 364.341217,275.254395 362.961945,275.175903 
	C357.399841,274.859375 351.809143,275.044708 345.845642,275.044708 
	C352.577972,287.099731 358.804688,298.799164 365.612579,310.150055 
	C368.092285,314.284485 367.928680,317.353424 365.638733,321.372040 
	C360.824768,329.820221 356.525482,338.561615 351.801666,347.590302 
	C357.794220,347.590302 363.124084,347.803772 368.417816,347.460449 
	C370.009583,347.357208 372.196075,346.076019 372.930206,344.703369 
	C380.029572,331.429901 386.862457,318.014191 393.802032,304.654999 
	C398.272705,296.048676 402.794373,287.468811 407.293213,278.877106 
	C407.569336,278.962769 407.845459,279.048431 408.121582,279.134125 
	C408.121582,281.984070 408.121582,284.834015 408.121582,287.760651 
	C410.544189,287.935730 412.631073,288.086548 415.031860,288.260071 
	C415.031860,294.349823 414.933228,300.129181 415.057037,305.903778 
	C415.208862,312.983795 416.718140,319.525513 423.823639,323.008423 
	C430.821442,326.438538 437.430542,324.388519 444.353180,321.797607 
	C442.750488,316.791046 441.373932,312.490967 440.002808,308.207886 
	C434.412903,309.809570 432.346771,308.801910 432.075104,304.079346 
	C431.782288,298.988861 432.008881,293.868500 432.008881,288.367584 
	C435.458344,288.165802 438.550354,287.984955 441.740112,287.798370 
	C441.740112,283.546539 441.740112,279.337585 441.740112,275.039551 
	C439.814697,275.039551 438.320282,275.039551 435.946411,275.029236 
M191.161636,245.947922 
	C182.577362,245.947922 173.993073,245.947922 165.110443,245.947922 
	C165.110443,271.889923 165.110443,297.342957 165.110443,322.999298 
	C172.878494,322.999298 180.472992,323.057129 188.066345,322.988739 
	C213.286682,322.761597 230.782547,300.615540 225.515793,275.865967 
	C222.488556,261.640411 209.989609,248.145065 191.161636,245.947922 
M306.831055,271.386627 
	C306.831055,261.951355 306.831055,252.516113 306.831055,242.854309 
	C300.993683,242.854309 295.575409,242.854309 290.029541,242.854309 
	C290.029541,269.639984 290.029541,296.146179 290.029541,323.013519 
	C294.532196,323.013519 298.828094,323.219452 303.086395,322.909088 
	C304.719330,322.790039 306.266327,321.492615 308.741699,320.305878 
	C320.018707,326.878235 331.741028,326.014801 339.604187,317.189362 
	C347.712158,308.089142 348.539948,292.912903 341.445740,283.427948 
	C333.396332,272.665985 322.290619,270.917175 306.833160,278.349030 
	C306.833160,276.172638 306.833160,274.261078 306.831055,271.386627 
M12.520356,298.874268 
	C12.520356,308.648987 12.520356,318.423706 12.520356,328.442749 
	C33.600525,328.442749 54.164631,328.442749 74.986725,328.442749 
	C74.986725,316.253082 74.986725,304.281799 74.986725,292.269775 
	C53.812271,292.269775 33.123074,292.269775 12.204236,292.269775 
	C12.301105,294.424927 12.381254,296.208130 12.520356,298.874268 
M254.941559,301.895813 
	C264.005524,301.895813 273.069519,301.895813 282.044464,301.895813 
	C284.033936,285.639709 274.654755,276.776428 264.245453,274.393524 
	C249.188812,270.946747 234.802490,278.789276 230.939484,292.451691 
	C227.445999,304.807251 234.749954,318.339539 247.157806,322.921631 
	C260.082886,327.694733 277.776337,322.022430 281.158569,311.708923 
	C275.513519,308.292786 270.692322,304.518066 263.248749,309.868286 
	C256.994812,314.363495 248.312363,309.002960 248.250244,301.864349 
	C250.222275,301.864349 252.194626,301.864349 254.941559,301.895813 
M476.082275,273.898468 
	C462.308594,271.984985 449.049347,280.377991 446.160645,292.838623 
	C443.088898,306.089081 450.260437,319.381073 463.066681,323.372314 
	C476.679871,327.615021 492.972076,321.955902 496.493469,311.572449 
	C495.186951,310.890594 493.819153,310.284393 492.561890,309.500885 
	C488.416565,306.917633 484.959198,305.735901 479.952972,309.155792 
	C472.533386,314.224304 464.333710,310.100861 463.515869,301.530914 
	C474.904053,301.530914 486.256500,301.530914 497.524323,301.530914 
	C499.810638,285.836639 488.332794,274.441559 476.082275,273.898468 
M74.808784,230.215057 
	C63.058151,230.280746 52.898937,239.157669 53.022533,250.121063 
	C53.139465,260.493164 60.216732,270.304321 72.606552,271.183563 
	C83.563583,271.961121 93.198135,263.464935 94.202774,252.251022 
	C95.172615,241.425537 87.080338,231.943985 74.808784,230.215057 
M66.443542,209.242142 
	C69.363220,209.242142 72.282898,209.242142 75.145737,209.242142 
	C75.145737,196.853714 75.145737,185.133469 75.145737,173.224091 
	C71.919319,173.224091 68.995125,173.224091 65.814217,173.224091 
	C65.814217,185.284988 65.814217,197.029358 66.443542,209.242142 
z"/>
<path fill="#FCFBFC" opacity="1.000000" stroke="none" 
	d="
M96.528107,325.534332 
	C90.811600,326.561707 85.488754,327.482422 79.822113,328.462555 
	C79.822113,315.856018 79.822113,304.096252 79.822113,292.199158 
	C101.468369,285.248322 114.003235,270.994232 112.581924,247.703796 
	C111.343040,227.402603 99.430611,214.738327 79.878922,208.880325 
	C79.878922,197.193497 79.878922,185.442215 79.878922,173.221558 
	C93.090630,173.694275 105.140060,177.409286 116.129799,184.247345 
	C149.894135,205.256348 162.852692,244.897980 147.224670,281.475464 
	C137.645477,303.895599 120.353607,318.402100 96.528107,325.534332 
z"/>
<path fill="#F9F6F8" opacity="1.000000" stroke="none" 
	d="
M436.386108,275.034393 
	C438.320282,275.039551 439.814697,275.039551 441.740112,275.039551 
	C441.740112,279.337585 441.740112,283.546539 441.740112,287.798370 
	C438.550354,287.984955 435.458344,288.165802 432.008881,288.367584 
	C432.008881,293.868500 431.782288,298.988861 432.075104,304.079346 
	C432.346771,308.801910 434.412903,309.809570 440.002808,308.207886 
	C441.373932,312.490967 442.750488,316.791046 444.353180,321.797607 
	C437.430542,324.388519 430.821442,326.438538 423.823639,323.008423 
	C416.718140,319.525513 415.208862,312.983795 415.057037,305.903778 
	C414.933228,300.129181 415.031860,294.349823 415.031860,288.260071 
	C412.631073,288.086548 410.544189,287.935730 408.121582,287.760651 
	C408.121582,284.834015 408.121582,281.984070 408.121582,279.134125 
	C407.845459,279.048431 407.569336,278.962769 407.293213,278.877106 
	C402.794373,287.468811 398.272705,296.048676 393.802032,304.654999 
	C386.862457,318.014191 380.029572,331.429901 372.930206,344.703369 
	C372.196075,346.076019 370.009583,347.357208 368.417816,347.460449 
	C363.124084,347.803772 357.794220,347.590302 351.801666,347.590302 
	C356.525482,338.561615 360.824768,329.820221 365.638733,321.372040 
	C367.928680,317.353424 368.092285,314.284485 365.612579,310.150055 
	C358.804688,298.799164 352.577972,287.099731 345.845642,275.044708 
	C351.809143,275.044708 357.399841,274.859375 362.961945,275.175903 
	C364.341217,275.254395 366.116516,276.672241 366.874939,277.964417 
	C370.714844,284.506653 374.279510,291.210419 378.452728,298.787292 
	C382.033478,291.208374 385.349182,284.747437 388.112885,278.058380 
	C389.173157,275.492218 390.506989,274.966858 392.924774,275.002136 
	C400.216644,275.108612 407.511078,275.040558 415.101868,275.040558 
	C415.101868,269.006989 415.101868,263.275879 415.101868,257.230988 
	C420.678162,257.230988 425.957733,257.230988 432.002686,257.230988 
	C432.002686,261.749695 432.095245,266.308105 431.969116,270.860474 
	C431.889221,273.744232 433.013092,275.171661 436.386108,275.034393 
z"/>
<path fill="#FCFBFC" opacity="1.000000" stroke="none" 
	d="
M191.613861,246.020325 
	C209.989609,248.145065 222.488556,261.640411 225.515793,275.865967 
	C230.782547,300.615540 213.286682,322.761597 188.066345,322.988739 
	C180.472992,323.057129 172.878494,322.999298 165.110443,322.999298 
	C165.110443,297.342957 165.110443,271.889923 165.110443,245.947922 
	C173.993073,245.947922 182.577362,245.947922 191.613861,246.020325 
M206.457977,279.347778 
	C203.522324,267.257507 193.218445,259.939301 183.192719,262.721802 
	C183.192719,277.430878 183.192719,292.110168 183.192719,307.319183 
	C186.005356,307.022003 188.517426,307.071838 190.854279,306.456360 
	C202.362366,303.425171 208.055389,293.852142 206.457977,279.347778 
z"/>
<path fill="#FBFAFB" opacity="1.000000" stroke="none" 
	d="
M306.832092,271.868042 
	C306.833160,274.261078 306.833160,276.172638 306.833160,278.349030 
	C322.290619,270.917175 333.396332,272.665985 341.445740,283.427948 
	C348.539948,292.912903 347.712158,308.089142 339.604187,317.189362 
	C331.741028,326.014801 320.018707,326.878235 308.741699,320.305878 
	C306.266327,321.492615 304.719330,322.790039 303.086395,322.909088 
	C298.828094,323.219452 294.532196,323.013519 290.029541,323.013519 
	C290.029541,296.146179 290.029541,269.639984 290.029541,242.854309 
	C295.575409,242.854309 300.993683,242.854309 306.831055,242.854309 
	C306.831055,252.516113 306.831055,261.951355 306.832092,271.868042 
M311.473297,289.718567 
	C310.719818,290.362244 309.873688,290.924927 309.228516,291.663208 
	C305.987213,295.372528 305.617432,301.653442 308.355255,305.489655 
	C311.375366,309.721375 316.647827,311.224579 321.606384,309.267578 
	C326.410522,307.371490 328.679504,303.307709 328.043091,297.739349 
	C327.151917,289.941742 320.523590,286.442200 311.473297,289.718567 
z"/>
<path fill="#F9F6F8" opacity="1.000000" stroke="none" 
	d="
M12.490880,298.432800 
	C12.381254,296.208130 12.301105,294.424927 12.204236,292.269775 
	C33.123074,292.269775 53.812271,292.269775 74.986725,292.269775 
	C74.986725,304.281799 74.986725,316.253082 74.986725,328.442749 
	C54.164631,328.442749 33.600525,328.442749 12.520356,328.442749 
	C12.520356,318.423706 12.520356,308.648987 12.490880,298.432800 
z"/>
<path fill="#F9F6F8" opacity="1.000000" stroke="none" 
	d="
M254.554276,301.880066 
	C252.194626,301.864349 250.222275,301.864349 248.250244,301.864349 
	C248.312363,309.002960 256.994812,314.363495 263.248749,309.868286 
	C270.692322,304.518066 275.513519,308.292786 281.158569,311.708923 
	C277.776337,322.022430 260.082886,327.694733 247.157806,322.921631 
	C234.749954,318.339539 227.445999,304.807251 230.939484,292.451691 
	C234.802490,278.789276 249.188812,270.946747 264.245453,274.393524 
	C274.654755,276.776428 284.033936,285.639709 282.044464,301.895813 
	C273.069519,301.895813 264.005524,301.895813 254.554276,301.880066 
M260.633514,285.295746 
	C252.860367,284.164520 250.156784,285.616852 248.703217,291.718414 
	C254.331589,291.718414 259.947479,291.718414 267.069855,291.718414 
	C264.572235,289.065857 262.963623,287.357452 260.633514,285.295746 
z"/>
<path fill="#F9F6F8" opacity="1.000000" stroke="none" 
	d="
M476.434753,273.956604 
	C488.332794,274.441559 499.810638,285.836639 497.524323,301.530914 
	C486.256500,301.530914 474.904053,301.530914 463.515869,301.530914 
	C464.333710,310.100861 472.533386,314.224304 479.952972,309.155792 
	C484.959198,305.735901 488.416565,306.917633 492.561890,309.500885 
	C493.819153,310.284393 495.186951,310.890594 496.493469,311.572449 
	C492.972076,321.955902 476.679871,327.615021 463.066681,323.372314 
	C450.260437,319.381073 443.088898,306.089081 446.160645,292.838623 
	C449.049347,280.377991 462.308594,271.984985 476.434753,273.956604 
M466.372559,286.720551 
	C465.459503,288.141571 464.546448,289.562592 463.169556,291.705505 
	C469.592529,291.705505 474.974365,291.705505 480.362915,291.713348 
	C479.431946,285.176208 473.840240,282.921570 466.372559,286.720551 
z"/>
<path fill="#FBFAFB" opacity="1.000000" stroke="none" 
	d="
M75.147919,230.268631 
	C87.080338,231.943985 95.172615,241.425537 94.202774,252.251022 
	C93.198135,263.464935 83.563583,271.961121 72.606552,271.183563 
	C60.216732,270.304321 53.139465,260.493164 53.022533,250.121063 
	C52.898937,239.157669 63.058151,230.280746 75.147919,230.268631 
z"/>
<path fill="#FBFAFB" opacity="1.000000" stroke="none" 
	d="
M66.128876,209.007935 
	C65.814217,197.029358 65.814217,185.284988 65.814217,173.224091 
	C68.995125,173.224091 71.919319,173.224091 75.145737,173.224091 
	C75.145737,185.133469 75.145737,196.853714 75.145737,209.242142 
	C72.282898,209.242142 69.363220,209.242142 66.128876,209.007935 
z"/>
<path fill="#070307" opacity="1.000000" stroke="none" 
	d="
M206.566986,279.761414 
	C208.055389,293.852142 202.362366,303.425171 190.854279,306.456360 
	C188.517426,307.071838 186.005356,307.022003 183.192719,307.319183 
	C183.192719,292.110168 183.192719,277.430878 183.192719,262.721802 
	C193.218445,259.939301 203.522324,267.257507 206.566986,279.761414 
z"/>
<path fill="#070307" opacity="1.000000" stroke="none" 
	d="
M311.811646,289.533447 
	C320.523590,286.442200 327.151917,289.941742 328.043091,297.739349 
	C328.679504,303.307709 326.410522,307.371490 321.606384,309.267578 
	C316.647827,311.224579 311.375366,309.721375 308.355255,305.489655 
	C305.617432,301.653442 305.987213,295.372528 309.228516,291.663208 
	C309.873688,290.924927 310.719818,290.362244 311.811646,289.533447 
z"/>
<path fill="#070307" opacity="1.000000" stroke="none" 
	d="
M260.994263,285.472412 
	C262.963623,287.357452 264.572235,289.065857 267.069855,291.718414 
	C259.947479,291.718414 254.331589,291.718414 248.703217,291.718414 
	C250.156784,285.616852 252.860367,284.164520 260.994263,285.472412 
z"/>
<path fill="#070307" opacity="1.000000" stroke="none" 
	d="
M466.732117,286.541382 
	C473.840240,282.921570 479.431946,285.176208 480.359558,291.709412 
	C474.974365,291.705505 469.592529,291.705505 463.169556,291.705505 
	C464.546448,289.562592 465.459503,288.141571 466.732117,286.541382 
z"/>
</svg>